<mxfile host="app.diagrams.net" modified="2023-04-09T19:04:20.959Z" agent="Mozilla/5.0 (Windows NT 10.0; Win64; x64) AppleWebKit/537.36 (KHTML, like Gecko) Chrome/112.0.0.0 Safari/537.36" etag="-oZQWT9xA_GQcEom_r3z" version="21.1.5" type="github">
  <diagram name="Página-1" id="lyj0hZrFDJ-8r3HJzVZs">
    <mxGraphModel dx="1120" dy="484" grid="1" gridSize="10" guides="1" tooltips="1" connect="1" arrows="1" fold="1" page="1" pageScale="1" pageWidth="827" pageHeight="1169" math="0" shadow="0">
      <root>
        <mxCell id="0" />
        <mxCell id="1" parent="0" />
        <mxCell id="D0hSBevEdicOvzyR2gOV-5" value="" style="edgeStyle=orthogonalEdgeStyle;rounded=0;orthogonalLoop=1;jettySize=auto;html=1;" edge="1" parent="1" source="D0hSBevEdicOvzyR2gOV-1" target="D0hSBevEdicOvzyR2gOV-4">
          <mxGeometry relative="1" as="geometry" />
        </mxCell>
        <mxCell id="D0hSBevEdicOvzyR2gOV-1" value="inicio" style="strokeWidth=2;html=1;shape=mxgraph.flowchart.start_1;whiteSpace=wrap;" vertex="1" parent="1">
          <mxGeometry x="390" y="20" width="60" height="30" as="geometry" />
        </mxCell>
        <mxCell id="D0hSBevEdicOvzyR2gOV-33" style="edgeStyle=orthogonalEdgeStyle;rounded=0;orthogonalLoop=1;jettySize=auto;html=1;exitX=0.145;exitY=0.145;exitDx=0;exitDy=0;exitPerimeter=0;" edge="1" parent="1" source="D0hSBevEdicOvzyR2gOV-3">
          <mxGeometry relative="1" as="geometry">
            <mxPoint x="390" y="460" as="targetPoint" />
          </mxGeometry>
        </mxCell>
        <mxCell id="D0hSBevEdicOvzyR2gOV-3" value="fim" style="strokeWidth=2;html=1;shape=mxgraph.flowchart.start_1;whiteSpace=wrap;" vertex="1" parent="1">
          <mxGeometry x="390" y="440" width="60" height="30" as="geometry" />
        </mxCell>
        <mxCell id="D0hSBevEdicOvzyR2gOV-17" style="edgeStyle=orthogonalEdgeStyle;rounded=0;orthogonalLoop=1;jettySize=auto;html=1;" edge="1" parent="1" source="D0hSBevEdicOvzyR2gOV-4" target="D0hSBevEdicOvzyR2gOV-8">
          <mxGeometry relative="1" as="geometry" />
        </mxCell>
        <mxCell id="D0hSBevEdicOvzyR2gOV-19" style="edgeStyle=orthogonalEdgeStyle;rounded=0;orthogonalLoop=1;jettySize=auto;html=1;" edge="1" parent="1" source="D0hSBevEdicOvzyR2gOV-4">
          <mxGeometry relative="1" as="geometry">
            <mxPoint x="240" y="100" as="targetPoint" />
          </mxGeometry>
        </mxCell>
        <mxCell id="D0hSBevEdicOvzyR2gOV-21" style="edgeStyle=orthogonalEdgeStyle;rounded=0;orthogonalLoop=1;jettySize=auto;html=1;entryX=0.5;entryY=0;entryDx=0;entryDy=0;entryPerimeter=0;" edge="1" parent="1" source="D0hSBevEdicOvzyR2gOV-4" target="D0hSBevEdicOvzyR2gOV-16">
          <mxGeometry relative="1" as="geometry" />
        </mxCell>
        <mxCell id="D0hSBevEdicOvzyR2gOV-4" value="n1,n2,n3" style="shape=parallelogram;html=1;strokeWidth=2;perimeter=parallelogramPerimeter;whiteSpace=wrap;rounded=1;arcSize=12;size=0.23;" vertex="1" parent="1">
          <mxGeometry x="375" y="80" width="90" height="40" as="geometry" />
        </mxCell>
        <mxCell id="D0hSBevEdicOvzyR2gOV-22" style="edgeStyle=orthogonalEdgeStyle;rounded=0;orthogonalLoop=1;jettySize=auto;html=1;entryX=0;entryY=0;entryDx=40;entryDy=0;entryPerimeter=0;" edge="1" parent="1" source="D0hSBevEdicOvzyR2gOV-8" target="D0hSBevEdicOvzyR2gOV-12">
          <mxGeometry relative="1" as="geometry" />
        </mxCell>
        <mxCell id="D0hSBevEdicOvzyR2gOV-8" value="(n1 &amp;gt;n2) e&lt;br&gt;(n1&amp;gt;n3)" style="strokeWidth=2;html=1;shape=mxgraph.flowchart.decision;whiteSpace=wrap;" vertex="1" parent="1">
          <mxGeometry x="510" y="60" width="100" height="80" as="geometry" />
        </mxCell>
        <mxCell id="D0hSBevEdicOvzyR2gOV-20" style="edgeStyle=orthogonalEdgeStyle;rounded=0;orthogonalLoop=1;jettySize=auto;html=1;" edge="1" parent="1" source="D0hSBevEdicOvzyR2gOV-9" target="D0hSBevEdicOvzyR2gOV-13">
          <mxGeometry relative="1" as="geometry" />
        </mxCell>
        <mxCell id="D0hSBevEdicOvzyR2gOV-9" value="(n1=n2) ou&lt;br&gt;(n1=3) ou (n2=n3)" style="strokeWidth=2;html=1;shape=mxgraph.flowchart.decision;whiteSpace=wrap;" vertex="1" parent="1">
          <mxGeometry x="90" y="65" width="150" height="70" as="geometry" />
        </mxCell>
        <mxCell id="D0hSBevEdicOvzyR2gOV-26" style="edgeStyle=orthogonalEdgeStyle;rounded=0;orthogonalLoop=1;jettySize=auto;html=1;" edge="1" parent="1" source="D0hSBevEdicOvzyR2gOV-11" target="D0hSBevEdicOvzyR2gOV-3">
          <mxGeometry relative="1" as="geometry" />
        </mxCell>
        <mxCell id="D0hSBevEdicOvzyR2gOV-11" value="n2 é maior" style="shape=display;whiteSpace=wrap;html=1;" vertex="1" parent="1">
          <mxGeometry x="380" y="300" width="80" height="40" as="geometry" />
        </mxCell>
        <mxCell id="D0hSBevEdicOvzyR2gOV-29" style="edgeStyle=orthogonalEdgeStyle;rounded=0;orthogonalLoop=1;jettySize=auto;html=1;entryX=1;entryY=0.5;entryDx=0;entryDy=0;entryPerimeter=0;" edge="1" parent="1" source="D0hSBevEdicOvzyR2gOV-12" target="D0hSBevEdicOvzyR2gOV-3">
          <mxGeometry relative="1" as="geometry">
            <Array as="points">
              <mxPoint x="560" y="455" />
            </Array>
          </mxGeometry>
        </mxCell>
        <mxCell id="D0hSBevEdicOvzyR2gOV-12" value="n1 é maior" style="shape=display;whiteSpace=wrap;html=1;size=0.125;" vertex="1" parent="1">
          <mxGeometry x="520" y="180" width="80" height="40" as="geometry" />
        </mxCell>
        <mxCell id="D0hSBevEdicOvzyR2gOV-34" style="edgeStyle=orthogonalEdgeStyle;rounded=0;orthogonalLoop=1;jettySize=auto;html=1;entryX=0;entryY=0.5;entryDx=0;entryDy=0;entryPerimeter=0;" edge="1" parent="1" source="D0hSBevEdicOvzyR2gOV-13" target="D0hSBevEdicOvzyR2gOV-3">
          <mxGeometry relative="1" as="geometry">
            <mxPoint x="380" y="452" as="targetPoint" />
            <Array as="points">
              <mxPoint x="160" y="455" />
            </Array>
          </mxGeometry>
        </mxCell>
        <mxCell id="D0hSBevEdicOvzyR2gOV-13" value="não podem ser Iguais" style="shape=display;whiteSpace=wrap;html=1;" vertex="1" parent="1">
          <mxGeometry x="125" y="230" width="80" height="40" as="geometry" />
        </mxCell>
        <mxCell id="D0hSBevEdicOvzyR2gOV-31" style="edgeStyle=orthogonalEdgeStyle;rounded=0;orthogonalLoop=1;jettySize=auto;html=1;entryX=0;entryY=0.5;entryDx=0;entryDy=0;entryPerimeter=0;" edge="1" parent="1" source="D0hSBevEdicOvzyR2gOV-14" target="D0hSBevEdicOvzyR2gOV-3">
          <mxGeometry relative="1" as="geometry">
            <Array as="points">
              <mxPoint x="290" y="455" />
            </Array>
          </mxGeometry>
        </mxCell>
        <mxCell id="D0hSBevEdicOvzyR2gOV-14" value="n3 é maior" style="shape=display;whiteSpace=wrap;html=1;" vertex="1" parent="1">
          <mxGeometry x="250" y="300" width="80" height="40" as="geometry" />
        </mxCell>
        <mxCell id="D0hSBevEdicOvzyR2gOV-24" style="edgeStyle=orthogonalEdgeStyle;rounded=0;orthogonalLoop=1;jettySize=auto;html=1;entryX=0;entryY=0;entryDx=40;entryDy=0;entryPerimeter=0;" edge="1" parent="1" source="D0hSBevEdicOvzyR2gOV-15" target="D0hSBevEdicOvzyR2gOV-14">
          <mxGeometry relative="1" as="geometry" />
        </mxCell>
        <mxCell id="D0hSBevEdicOvzyR2gOV-15" value="(n3 &amp;gt;n1) e&lt;br&gt;(n3&amp;gt;n2)" style="strokeWidth=2;html=1;shape=mxgraph.flowchart.decision;whiteSpace=wrap;" vertex="1" parent="1">
          <mxGeometry x="240" y="160" width="100" height="80" as="geometry" />
        </mxCell>
        <mxCell id="D0hSBevEdicOvzyR2gOV-23" style="edgeStyle=orthogonalEdgeStyle;rounded=0;orthogonalLoop=1;jettySize=auto;html=1;entryX=0;entryY=0;entryDx=40;entryDy=0;entryPerimeter=0;" edge="1" parent="1" source="D0hSBevEdicOvzyR2gOV-16" target="D0hSBevEdicOvzyR2gOV-11">
          <mxGeometry relative="1" as="geometry" />
        </mxCell>
        <mxCell id="D0hSBevEdicOvzyR2gOV-16" value="(n2 &amp;gt;n1) e&lt;br&gt;(n2&amp;gt;n3)" style="strokeWidth=2;html=1;shape=mxgraph.flowchart.decision;whiteSpace=wrap;" vertex="1" parent="1">
          <mxGeometry x="370" y="160" width="100" height="80" as="geometry" />
        </mxCell>
        <mxCell id="D0hSBevEdicOvzyR2gOV-39" style="edgeStyle=orthogonalEdgeStyle;rounded=0;orthogonalLoop=1;jettySize=auto;html=1;exitX=0;exitY=0.75;exitDx=0;exitDy=0;" edge="1" parent="1" source="D0hSBevEdicOvzyR2gOV-4" target="D0hSBevEdicOvzyR2gOV-15">
          <mxGeometry relative="1" as="geometry">
            <mxPoint x="430" y="130" as="sourcePoint" />
            <mxPoint x="430" y="170" as="targetPoint" />
            <Array as="points">
              <mxPoint x="381" y="100" />
              <mxPoint x="290" y="100" />
            </Array>
          </mxGeometry>
        </mxCell>
      </root>
    </mxGraphModel>
  </diagram>
</mxfile>
